<svg width="34" height="35" viewBox="0 0 34 35" fill="none" xmlns="http://www.w3.org/2000/svg">
<path d="M15.6136 0.187798V13.3999C15.6136 14.8299 14.4822 15.9898 13.0846 15.9898H0C0.665199 7.47509 7.29321 0.682455 15.6052 0C15.6112 0.0625993 15.6124 0.123971 15.6124 0.187798H15.6136Z" fill="#F4CE47"/>
<path d="M33.9815 15.9899H20.8969C19.5006 15.9899 18.3679 14.83 18.3679 13.4001V0.18792C18.3679 0.124093 18.3703 0.0614939 18.3751 0.00012207C26.6871 0.682577 33.3163 7.47521 33.9803 15.9899H33.9815Z" fill="#F4CE47"/>
<path d="M15.6136 21.3995V34.6128C15.6136 34.6754 15.6112 34.7368 15.6064 34.7994C7.29321 34.1157 0.665199 27.3255 0 18.8108H13.0846C14.4822 18.8108 15.6136 19.9695 15.6136 21.3995Z" fill="#F4CE47"/>
<path d="M33.9815 18.8106C33.3163 27.3253 26.6883 34.1155 18.3763 34.7979C18.3703 34.7353 18.3691 34.6739 18.3691 34.6113V21.398C18.3691 19.968 19.5018 18.8093 20.8981 18.8093H33.9827L33.9815 18.8106Z" fill="#F4CE47"/>
</svg>
