<svg width="150" height="150" viewBox="0 0 150 150" fill="none" xmlns="http://www.w3.org/2000/svg">
<rect width="150" height="150" fill="#323436"/>
<path d="M70.3796 14.6541V60.6698C70.3796 65.6502 66.439 69.69 61.5717 69.69H16C18.3168 40.0345 41.4011 16.3769 70.3504 14C70.3713 14.218 70.3755 14.4318 70.3755 14.6541H70.3796Z" fill="#F4CE47"/>
<path d="M134.352 69.6904H88.7806C83.9174 69.6904 79.9727 65.6505 79.9727 60.6702V14.6544C79.9727 14.4321 79.981 14.2141 79.9977 14.0004C108.947 16.3772 132.036 40.0349 134.348 69.6904H134.352Z" fill="#F4CE47"/>
<path d="M70.3796 88.5309V134.551C70.3796 134.769 70.3713 134.983 70.3546 135.201C41.4011 132.82 18.3168 109.17 16 79.515H61.5717C66.439 79.515 70.3796 83.5506 70.3796 88.5309Z" fill="#F4CE47"/>
<path d="M134.352 79.5142C132.035 109.17 108.951 132.819 80.0019 135.196C79.981 134.978 79.9768 134.764 79.9768 134.546V88.5258C79.9768 83.5455 83.9216 79.5099 88.7848 79.5099H134.356L134.352 79.5142Z" fill="#F4CE47"/>
</svg>
