<svg width="143" height="35" viewBox="0 0 143 35" fill="none" xmlns="http://www.w3.org/2000/svg">
<path d="M15.6136 0.187798V13.3999C15.6136 14.8299 14.4822 15.9898 13.0846 15.9898H0C0.665199 7.47509 7.29321 0.682455 15.6052 0C15.6112 0.0625993 15.6124 0.123971 15.6124 0.187798H15.6136Z" fill="#F4CE47"/>
<path d="M33.9815 15.9899H20.8969C19.5006 15.9899 18.3679 14.83 18.3679 13.4001V0.18792C18.3679 0.124093 18.3703 0.0614939 18.3751 0.00012207C26.6871 0.682577 33.3163 7.47521 33.9803 15.9899H33.9815Z" fill="#F4CE47"/>
<path d="M15.6136 21.3995V34.6128C15.6136 34.6754 15.6112 34.7368 15.6064 34.7994C7.29321 34.1157 0.665199 27.3255 0 18.8108H13.0846C14.4822 18.8108 15.6136 19.9695 15.6136 21.3995Z" fill="#F4CE47"/>
<path d="M33.9815 18.8106C33.3163 27.3253 26.6883 34.1155 18.3763 34.7979C18.3703 34.7353 18.3691 34.6739 18.3691 34.6113V21.398C18.3691 19.968 19.5018 18.8093 20.8981 18.8093H33.9827L33.9815 18.8106Z" fill="#F4CE47"/>
<path d="M45.3663 24.3997V22.0797H47.2063V12.7197H45.3663V10.3997H52.5663C53.4197 10.3997 54.1597 10.5463 54.7863 10.8397C55.4263 11.1197 55.9197 11.5263 56.2663 12.0597C56.6263 12.5797 56.8063 13.2063 56.8063 13.9397V14.1397C56.8063 14.7797 56.6863 15.3063 56.4463 15.7197C56.2063 16.1197 55.9197 16.433 55.5863 16.6597C55.2663 16.873 54.9597 17.0263 54.6663 17.1197V17.4797C54.9597 17.5597 55.2797 17.713 55.6263 17.9397C55.973 18.153 56.2663 18.4663 56.5063 18.8797C56.7597 19.293 56.8863 19.833 56.8863 20.4997V20.6997C56.8863 21.473 56.7063 22.1397 56.3463 22.6997C55.9863 23.2463 55.4863 23.6663 54.8463 23.9597C54.2197 24.253 53.4863 24.3997 52.6463 24.3997H45.3663ZM49.8463 21.9997H52.3263C52.8997 21.9997 53.3597 21.8597 53.7063 21.5797C54.0663 21.2997 54.2463 20.8997 54.2463 20.3797V20.1797C54.2463 19.6597 54.073 19.2597 53.7263 18.9797C53.3797 18.6997 52.913 18.5597 52.3263 18.5597H49.8463V21.9997ZM49.8463 16.1597H52.2863C52.833 16.1597 53.2797 16.0197 53.6263 15.7397C53.9863 15.4597 54.1663 15.073 54.1663 14.5797V14.3797C54.1663 13.873 53.993 13.4863 53.6463 13.2197C53.2997 12.9397 52.8463 12.7997 52.2863 12.7997H49.8463V16.1597ZM64.2876 24.6797C62.5276 24.6797 61.1276 24.1997 60.0876 23.2397C59.0476 22.2663 58.5276 20.8797 58.5276 19.0797V15.7197C58.5276 13.9197 59.0476 12.5397 60.0876 11.5797C61.1276 10.6063 62.5276 10.1197 64.2876 10.1197C66.0476 10.1197 67.4476 10.6063 68.4876 11.5797C69.5276 12.5397 70.0476 13.9197 70.0476 15.7197V19.0797C70.0476 20.8797 69.5276 22.2663 68.4876 23.2397C67.4476 24.1997 66.0476 24.6797 64.2876 24.6797ZM64.2876 22.3197C65.2743 22.3197 66.0409 22.033 66.5876 21.4597C67.1343 20.8863 67.4076 20.1197 67.4076 19.1597V15.6397C67.4076 14.6797 67.1343 13.913 66.5876 13.3397C66.0409 12.7663 65.2743 12.4797 64.2876 12.4797C63.3143 12.4797 62.5476 12.7663 61.9876 13.3397C61.4409 13.913 61.1676 14.6797 61.1676 15.6397V19.1597C61.1676 20.1197 61.4409 20.8863 61.9876 21.4597C62.5476 22.033 63.3143 22.3197 64.2876 22.3197ZM77.6032 24.6797C75.8432 24.6797 74.4432 24.1997 73.4032 23.2397C72.3632 22.2663 71.8432 20.8797 71.8432 19.0797V15.7197C71.8432 13.9197 72.3632 12.5397 73.4032 11.5797C74.4432 10.6063 75.8432 10.1197 77.6032 10.1197C79.3632 10.1197 80.7632 10.6063 81.8032 11.5797C82.8432 12.5397 83.3632 13.9197 83.3632 15.7197V19.0797C83.3632 20.8797 82.8432 22.2663 81.8032 23.2397C80.7632 24.1997 79.3632 24.6797 77.6032 24.6797ZM77.6032 22.3197C78.5899 22.3197 79.3565 22.033 79.9032 21.4597C80.4499 20.8863 80.7232 20.1197 80.7232 19.1597V15.6397C80.7232 14.6797 80.4499 13.913 79.9032 13.3397C79.3565 12.7663 78.5899 12.4797 77.6032 12.4797C76.6299 12.4797 75.8632 12.7663 75.3032 13.3397C74.7565 13.913 74.4832 14.6797 74.4832 15.6397V19.1597C74.4832 20.1197 74.7565 20.8863 75.3032 21.4597C75.8632 22.033 76.6299 22.3197 77.6032 22.3197ZM85.4788 24.3997V10.3997H88.1188V15.9597H88.4788L93.0188 10.3997H96.3988L90.5588 17.2997L96.5988 24.3997H93.1188L88.4788 18.7197H88.1188V24.3997H85.4788ZM102.502 24.6797C101.422 24.6797 100.469 24.4863 99.6421 24.0997C98.8155 23.713 98.1688 23.1597 97.7021 22.4397C97.2355 21.7197 97.0021 20.853 97.0021 19.8397V19.2797H99.6021V19.8397C99.6021 20.6797 99.8621 21.313 100.382 21.7397C100.902 22.153 101.609 22.3597 102.502 22.3597C103.409 22.3597 104.082 22.1797 104.522 21.8197C104.975 21.4597 105.202 20.9997 105.202 20.4397C105.202 20.053 105.089 19.7397 104.862 19.4997C104.649 19.2597 104.329 19.0663 103.902 18.9197C103.489 18.7597 102.982 18.613 102.382 18.4797L101.922 18.3797C100.962 18.1663 100.135 17.8997 99.4421 17.5797C98.7621 17.2463 98.2355 16.813 97.8621 16.2797C97.5021 15.7463 97.3221 15.053 97.3221 14.1997C97.3221 13.3463 97.5221 12.6197 97.9221 12.0197C98.3355 11.4063 98.9088 10.9397 99.6421 10.6197C100.389 10.2863 101.262 10.1197 102.262 10.1197C103.262 10.1197 104.149 10.293 104.922 10.6397C105.709 10.973 106.322 11.4797 106.762 12.1597C107.215 12.8263 107.442 13.6663 107.442 14.6797V15.2797H104.842V14.6797C104.842 14.1463 104.735 13.7197 104.522 13.3997C104.322 13.0663 104.029 12.8263 103.642 12.6797C103.255 12.5197 102.795 12.4397 102.262 12.4397C101.462 12.4397 100.869 12.593 100.482 12.8997C100.109 13.193 99.9221 13.5997 99.9221 14.1197C99.9221 14.4663 100.009 14.7597 100.182 14.9997C100.369 15.2397 100.642 15.4397 101.002 15.5997C101.362 15.7597 101.822 15.8997 102.382 16.0197L102.842 16.1197C103.842 16.333 104.709 16.6063 105.442 16.9397C106.189 17.273 106.769 17.713 107.182 18.2597C107.595 18.8063 107.802 19.5063 107.802 20.3597C107.802 21.213 107.582 21.9663 107.142 22.6197C106.715 23.2597 106.102 23.7663 105.302 24.1397C104.515 24.4997 103.582 24.6797 102.502 24.6797ZM111.231 24.6797C110.698 24.6797 110.244 24.5063 109.871 24.1597C109.511 23.7997 109.331 23.3397 109.331 22.7797C109.331 22.2197 109.511 21.7663 109.871 21.4197C110.244 21.0597 110.698 20.8797 111.231 20.8797C111.778 20.8797 112.231 21.0597 112.591 21.4197C112.951 21.7663 113.131 22.2197 113.131 22.7797C113.131 23.3397 112.951 23.7997 112.591 24.1597C112.231 24.5063 111.778 24.6797 111.231 24.6797ZM115.328 24.3997V10.3997H120.228L122.648 22.5997H123.008L125.428 10.3997H130.328V24.3997H127.768V12.3397H127.408L125.008 24.3997H120.648L118.248 12.3397H117.888V24.3997H115.328ZM132.765 24.3997V10.3997H141.765V12.7997H135.405V16.1397H141.205V18.5397H135.405V21.9997H141.885V24.3997H132.765Z" fill="white"/>
</svg>
